HIERARCHY
ROOT hip
{
	OFFSET 0.000000 0.000000 0.000000 
	CHANNELS 6 Xposition Yposition Zposition Xrotation Zrotation Yrotation
	JOINT abdomen
	{
		OFFSET 0.000000 3.402643 0.000000 
		CHANNELS 3 Xrotation Zrotation Yrotation
		JOINT chest
		{
			OFFSET 0.000000 8.438565 -0.680529 
			CHANNELS 3 Xrotation Zrotation Yrotation
			JOINT neck
			{
				OFFSET 0.000000 10.207942 -0.272212 
				CHANNELS 3 Xrotation Zrotation Yrotation
				JOINT head
				{
					OFFSET 0.000000 3.130431 0.000000 
					CHANNELS 3 Xrotation Zrotation Yrotation
					End Site
					{
						OFFSET 0.000000 3.130435 0.000000 
					}
				}
			}
			JOINT lCollar
			{
				OFFSET 3.470700 6.669187 -0.816635 
				CHANNELS 3 Yrotation Zrotation Xrotation
				JOINT lShldr
				{
					OFFSET 3.198488 0.000000 0.000000 
					CHANNELS 3 Zrotation Yrotation Xrotation
					JOINT lForeArm
					{
						OFFSET 10.139888 0.000000 0.000000 
						CHANNELS 3 Yrotation Zrotation Xrotation
						JOINT lHand
						{
							OFFSET 8.370511 0.000000 0.000000 
							CHANNELS 3 Zrotation Yrotation Xrotation
							End Site
							{
								OFFSET 4.083176 0.000000 0.000000 
							}
						}
					}
				}
			}
			JOINT rCollar
			{
				OFFSET -3.470700 6.669187 -0.816635 
				CHANNELS 3 Yrotation Zrotation Xrotation
				JOINT rShldr
				{
					OFFSET -3.198488 0.000000 0.000000 
					CHANNELS 3 Zrotation Yrotation Xrotation
					JOINT rForeArm
					{
						OFFSET -10.139888 0.000000 0.000000 
						CHANNELS 3 Yrotation Zrotation Xrotation
						JOINT rHand
						{
							OFFSET -8.370511 0.000000 0.000000 
							CHANNELS 3 Zrotation Yrotation Xrotation
							End Site
							{
								OFFSET -4.083176 0.000000 0.000000 
							}
						}
					}
				}
			}
		}
	}
	JOINT lThigh
	{
		OFFSET 5.308129 -1.633274 1.361059 
		CHANNELS 3 Xrotation Zrotation Yrotation
		JOINT lShin
		{
			OFFSET -2.041588 -20.007561 0.000000 
			CHANNELS 3 Xrotation Zrotation Yrotation
			JOINT lFoot
			{
				OFFSET 0.000000 -19.190928 -1.224953 
				CHANNELS 3 Xrotation Yrotation Zrotation
				End Site
				{
					OFFSET 0.000000 -2.449906 4.627600 
				}
			}
		}
	}
	JOINT rThigh
	{
		OFFSET -5.308129 -1.633274 1.361059 
		CHANNELS 3 Xrotation Zrotation Yrotation
		JOINT rShin
		{
			OFFSET 2.041588 -20.007561 0.000000 
			CHANNELS 3 Xrotation Zrotation Yrotation
			JOINT rFoot
			{
				OFFSET 0.000000 -19.190928 -1.224953 
				CHANNELS 3 Xrotation Yrotation Zrotation
				End Site
				{
					OFFSET 0.000000 -2.449906 4.627600 
				}
			}
		}
	}
}
MOTION
Frames: 6
Frame Time: 0.011111
34.593166 53.245468 -15.534851 0.702650 1.343219 -170.168320 23.251724 -0.394935 0.089815 -32.537369 0.167438 -0.102319 -17.675116 -11.069174 -1.634617 28.739756 15.845864 -6.171849 -10.256527 -0.734681 -0.809317 -68.854424 -5.757487 22.601715 -58.143925 9.091233 11.575449 8.524705 12.647240 -65.569710 6.318032 -3.285348 0.526703 70.803970 6.284829 27.496552 55.876213 -8.810439 10.602442 -8.534408 -12.637552 30.599466 10.975753 7.245304 -0.866838 45.279430 -4.211097 -6.701946 9.690230 -2.290897 -2.282488 -3.846676 2.411384 20.275114 13.899441 5.932343 2.662430 -28.502609 -27.477825 -8.976463 
34.663563 53.279228 -15.985970 0.836826 1.404328 -169.929504 23.466085 -0.296137 0.076849 -32.439648 0.117874 -0.104418 -17.842522 -11.146566 -1.733932 28.979338 15.811723 -6.447868 -10.256527 -0.734681 -0.809317 -68.489937 -6.039594 22.564711 -58.196735 9.096043 11.599680 8.524705 12.647240 -64.358772 6.318032 -3.285348 0.526703 70.595329 6.476540 27.999741 56.215572 -8.860084 10.746943 -8.534408 -12.637552 30.687361 9.724219 7.585173 -0.705431 47.444462 -4.025828 -6.937753 11.008480 -1.790162 -2.201233 -2.792454 2.537447 20.169666 13.256346 5.942758 2.575994 -28.231356 -27.593185 -8.858454 
34.737911 53.290718 -16.416254 0.932447 1.549748 -169.709595 23.553680 -0.134775 0.121220 -32.341965 0.089075 -0.099902 -17.686909 -11.072552 -1.834875 28.700356 15.649400 -6.620661 -10.256527 -0.734681 -0.809317 -68.165565 -6.100811 22.532007 -58.474445 9.130239 11.723614 8.524705 12.647240 -62.923225 6.318032 -3.285348 0.526703 70.378632 6.736168 28.444288 56.385136 -8.884212 10.823732 -8.534408 -12.637552 30.785015 8.333377 8.030664 -0.457268 49.616962 -3.820817 -7.169487 12.160379 -1.164018 -2.162110 -1.816498 2.761545 20.070879 12.573915 5.956614 2.476546 -26.451914 -28.427164 -8.075428 
34.814774 53.298264 -16.830379 0.970671 1.979679 -169.554596 23.525244 0.287213 0.416410 -32.341808 -0.102664 -0.061479 -17.426119 -11.214484 -1.876125 28.599638 15.926919 -6.693934 -10.256527 -0.734681 -0.809317 -67.760246 -5.850208 22.633905 -58.930584 9.172759 11.922664 8.524705 12.647240 -61.438858 6.318032 -3.285348 0.526703 70.243317 6.887402 28.896570 56.523472 -8.905602 10.890427 -8.534408 -12.637552 31.146345 6.723395 8.762914 -0.126931 51.806686 -3.596682 -7.397650 12.700223 -0.816060 -2.173895 -0.918833 3.269778 19.832743 11.841888 5.966754 2.382000 -23.422674 -29.395983 -6.628081 
34.888405 53.309761 -17.249172 1.056869 2.409645 -169.367493 23.566946 0.754366 0.785402 -32.400349 -0.350922 -0.004409 -17.481945 -11.515577 -1.844262 29.020224 16.426443 -6.686746 -10.256527 -0.734681 -0.809317 -67.393532 -5.656333 22.663527 -59.313484 9.208052 12.086620 8.524705 12.647240 -60.130260 6.318032 -3.285348 0.526703 70.122299 7.000993 29.134722 56.702660 -8.925170 10.959827 -8.534408 -12.637552 31.273298 5.142920 9.475117 0.150674 53.984039 -3.382075 -7.601951 12.293906 -1.059070 -2.172743 0.086709 3.787332 19.742373 11.057097 5.974856 2.273118 -23.151783 -29.459290 -6.492901 
34.945511 53.298985 -17.664732 1.210209 2.621803 -169.209747 23.735357 1.019791 1.106742 -32.478558 -0.567154 0.068300 -17.372631 -11.702869 -1.858447 29.083744 16.733328 -6.703549 -10.256527 -0.734681 -0.809317 -67.026062 -5.631167 22.687061 -59.537804 9.232055 12.199792 8.524705 12.647240 -58.860725 6.318032 -3.285348 0.526703 69.969643 7.297718 29.174368 56.702660 -8.925170 10.959827 -8.534408 -12.637552 31.029156 3.730564 9.930842 0.318357 56.071274 -3.158610 -7.788542 11.494488 -1.346218 -2.212101 1.237757 4.050387 19.780592 10.246822 5.984603 2.161620 -25.344294 -28.765202 -7.537906 
